<?xml version="1.0" standalone="no"?><!DOCTYPE svg PUBLIC "-//W3C//DTD SVG 1.1//EN" "http://www.w3.org/Graphics/SVG/1.1/DTD/svg11.dtd"><svg t="1686563987475" class="icon" viewBox="0 0 1024 1024" version="1.1" xmlns="http://www.w3.org/2000/svg" p-id="19851" xmlns:xlink="http://www.w3.org/1999/xlink" width="200" height="200"><path d="M512 960a448 448 0 1 1 448-448 448.512 448.512 0 0 1-448 448z m0-256a585.408 585.408 0 0 0-279.232 71.616 384 384 0 0 0 558.464 0A585.472 585.472 0 0 0 512 704z m0-64a649.28 649.28 0 0 1 320 84.8 384 384 0 1 0-639.424 0A649.792 649.792 0 0 1 512 640z m0-64a177.92 177.92 0 1 1 177.92-177.92A178.112 178.112 0 0 1 512 576z m0-291.84a113.92 113.92 0 1 0 113.92 113.92A114.048 114.048 0 0 0 512 284.16z" p-id="19852"></path></svg>